<svg xmlns="http://www.w3.org/2000/svg" width="230" height="200" shape-rendering="geometricPrecision">
<rect width="230" height="200" fill="rgba(255,255,255,0.05)"/>
<polygon points="0.0,38.4 2.3,18.6 4.6,65.3 7.0,178.6 9.3,150.0 11.6,26.6 13.9,58.1 16.3,58.4 18.6,48.3 20.9,115.5 23.2,178.8 25.6,179.3 27.9,178.0 30.2,178.7 32.5,149.2 34.8,49.6 37.2,36.6 39.5,49.0 41.8,46.0 44.1,27.9 46.5,32.2 48.8,160.0 51.1,177.7 53.4,177.4 55.8,107.9 58.1,38.9 60.4,57.8 62.7,76.5 65.1,75.4 67.4,72.4 69.7,62.2 72.0,18.2 74.3,55.1 76.7,46.7 79.0,157.8 81.3,176.7 83.6,116.2 86.0,52.8 88.3,89.1 90.6,182.1 92.9,182.9 95.3,195.5 97.6,191.8 99.9,182.5 102.2,182.2 104.5,181.7 106.9,191.7 109.2,196.7 111.5,196.4 113.8,196.2 116.2,195.8 118.5,196.3 120.8,196.3 123.1,196.6 125.5,196.5 127.8,195.8 130.1,195.0 132.4,196.7 134.7,196.3 137.1,196.0 139.4,195.6 141.7,196.4 144.0,196.6 146.4,196.6 148.7,196.3 151.0,196.0 153.3,196.3 155.7,196.6 158.0,196.3 160.3,190.4 162.6,182.2 164.9,182.0 167.3,182.3 169.6,182.2 171.9,181.9 174.2,181.9 176.6,182.7 178.9,182.5 181.2,181.9 183.5,181.6 185.9,182.6 188.2,182.0 190.5,182.4 192.8,182.5 195.2,176.0 197.5,171.2 199.8,181.9 202.1,182.5 204.4,182.2 206.8,182.4 209.1,196.4 211.4,171.0 213.7,163.7 216.1,179.5 218.4,180.4 220.7,181.3 223.0,182.0 225.4,180.9 227.7,179.6 230.0,181.6 230.0,200" fill="rgba(255,255,255,0.15)"/>
<polyline points="0.0,38.4 2.3,18.6 4.6,65.3 7.0,178.6 9.3,150.0 11.6,26.6 13.9,58.1 16.3,58.4 18.6,48.3 20.9,115.5 23.2,178.8 25.6,179.3 27.9,178.0 30.2,178.7 32.5,149.2 34.8,49.6 37.2,36.6 39.5,49.0 41.8,46.0 44.1,27.9 46.5,32.2 48.8,160.0 51.1,177.7 53.4,177.4 55.8,107.9 58.1,38.9 60.4,57.8 62.7,76.5 65.1,75.4 67.4,72.4 69.7,62.2 72.0,18.2 74.3,55.1 76.7,46.7 79.0,157.8 81.3,176.7 83.6,116.2 86.0,52.8 88.3,89.1 90.6,182.1 92.9,182.9 95.3,195.5 97.6,191.8 99.9,182.5 102.2,182.2 104.5,181.7 106.9,191.7 109.2,196.7 111.5,196.4 113.8,196.2 116.2,195.8 118.5,196.3 120.8,196.3 123.1,196.6 125.5,196.5 127.8,195.8 130.1,195.0 132.4,196.7 134.7,196.3 137.1,196.0 139.4,195.6 141.7,196.4 144.0,196.6 146.4,196.6 148.7,196.3 151.0,196.0 153.3,196.3 155.7,196.6 158.0,196.3 160.3,190.4 162.6,182.2 164.9,182.0 167.3,182.3 169.6,182.2 171.9,181.9 174.2,181.9 176.6,182.7 178.9,182.5 181.2,181.9 183.5,181.6 185.9,182.6 188.2,182.0 190.5,182.4 192.8,182.5 195.2,176.0 197.5,171.2 199.8,181.9 202.1,182.5 204.4,182.2 206.8,182.4 209.1,196.4 211.4,171.0 213.7,163.7 216.1,179.5 218.4,180.4 220.7,181.3 223.0,182.0 225.4,180.9 227.7,179.6 230.0,181.6" fill="none" stroke="rgba(255,255,255,0.8)" stroke-width="2" stroke-linejoin="round" stroke-linecap="round"/>
</svg>
