<svg xmlns="http://www.w3.org/2000/svg" width="230" height="200" shape-rendering="geometricPrecision">
<rect width="230" height="200" fill="rgba(255,255,255,0.05)"/>
<polygon points="0.0,103.6 2.3,102.6 4.6,100.1 7.0,102.8 9.3,19.0 11.6,103.6 13.9,103.5 16.3,100.8 18.6,101.7 20.9,102.3 23.2,100.7 25.6,20.1 27.9,103.6 30.2,103.5 32.5,104.0 34.8,105.1 37.2,102.3 39.5,101.0 41.8,101.3 44.1,102.0 46.5,98.9 48.8,101.1 51.1,92.9 53.4,22.6 55.8,104.0 58.1,104.8 60.4,100.6 62.7,101.1 65.1,102.3 67.4,101.4 69.7,103.5 72.0,101.0 74.3,102.4 76.7,102.2 79.0,102.2 81.3,97.6 83.6,18.2 86.0,104.7 88.3,101.3 90.6,98.6 92.9,101.1 95.3,105.6 97.6,106.0 99.9,106.7 102.2,105.1 104.5,105.3 106.9,105.7 109.2,106.3 111.5,106.0 113.8,107.7 116.2,106.8 118.5,107.7 120.8,106.4 123.1,97.4 125.5,105.8 127.8,106.8 130.1,107.7 132.4,106.5 134.7,107.7 137.1,106.7 139.4,108.0 141.7,107.2 144.0,106.8 146.4,107.2 148.7,107.1 151.0,108.4 153.3,106.8 155.7,107.0 158.0,107.1 160.3,106.4 162.6,108.6 164.9,106.6 167.3,107.4 169.6,105.5 171.9,106.9 174.2,106.7 176.6,106.5 178.9,106.4 181.2,107.5 183.5,105.5 185.9,106.5 188.2,107.4 190.5,107.1 192.8,106.4 195.2,106.5 197.5,106.8 199.8,107.8 202.1,106.3 204.4,107.0 206.8,106.6 209.1,108.1 211.4,108.2 213.7,108.0 216.1,105.4 218.4,106.5 220.7,105.2 223.0,106.3 225.4,106.6 227.7,107.5 230.0,105.4 230.0,200" fill="rgba(255,255,255,0.15)"/>
<polyline points="0.0,103.6 2.3,102.6 4.6,100.1 7.0,102.8 9.3,19.0 11.6,103.6 13.9,103.5 16.3,100.8 18.6,101.7 20.9,102.3 23.2,100.7 25.6,20.1 27.9,103.6 30.2,103.5 32.5,104.0 34.8,105.1 37.2,102.3 39.5,101.0 41.8,101.3 44.1,102.0 46.5,98.9 48.8,101.1 51.1,92.9 53.4,22.6 55.8,104.0 58.1,104.8 60.4,100.6 62.7,101.1 65.1,102.3 67.4,101.4 69.7,103.5 72.0,101.0 74.3,102.4 76.7,102.2 79.0,102.2 81.3,97.6 83.6,18.2 86.0,104.7 88.3,101.3 90.6,98.6 92.9,101.1 95.3,105.6 97.6,106.0 99.9,106.7 102.2,105.1 104.5,105.3 106.9,105.7 109.2,106.3 111.5,106.0 113.8,107.7 116.2,106.8 118.5,107.7 120.8,106.4 123.1,97.4 125.5,105.8 127.8,106.8 130.1,107.7 132.4,106.5 134.7,107.7 137.1,106.7 139.4,108.0 141.7,107.2 144.0,106.8 146.4,107.2 148.7,107.1 151.0,108.4 153.3,106.8 155.7,107.0 158.0,107.1 160.3,106.4 162.6,108.6 164.9,106.6 167.3,107.4 169.6,105.5 171.9,106.9 174.2,106.7 176.6,106.5 178.9,106.4 181.2,107.5 183.5,105.5 185.9,106.5 188.2,107.4 190.5,107.1 192.8,106.4 195.2,106.5 197.5,106.8 199.8,107.8 202.1,106.3 204.4,107.0 206.8,106.6 209.1,108.1 211.4,108.2 213.7,108.0 216.1,105.4 218.4,106.5 220.7,105.2 223.0,106.3 225.4,106.6 227.7,107.5 230.0,105.4" fill="none" stroke="rgba(255,255,255,0.8)" stroke-width="2" stroke-linejoin="round" stroke-linecap="round"/>
</svg>
